<?xml version="1.0" encoding="UTF-8"?>
<svg id="Layer_1" data-name="Layer 1" xmlns="http://www.w3.org/2000/svg" viewBox="0 0 197.575 104.698">
  <defs>
    <style>
      .cls-1 {
        fill: #7c9a7a;
        stroke: #231f20;
        stroke-miterlimit: 10;
        stroke-width: 1.3px;
      }
    </style>
  </defs>
  <path class="cls-1" d="m37.451,81.973c0,15.309-5.546,21.681-17.488,21.681-6.024,0-12.432-.217-15.238-3.432-2.809-3.217-4.006-9.56-4.006-17.726l-.069-64.615c0-5.919,1.856-10.294,5.072-13.409C8.936,1.359,12.536.65,17.742.65l31.682.139c12.553,0,22.396,2.679,30.154,8.546,7.754,5.872,11.533,12.771,11.533,21.955,0,6.942-.811,12.206-3.72,16.133-2.909,3.931-4.567,4.166-10.198,7.939,2.96,1.829,5.108,1.883,9.293,6.323,4.184,4.44,5.921,11.042,5.921,17.676,0,6.738-.467,11.615-1.741,15.238-1.278,3.623-3.917,6.536-6.266,7.759-2.348,1.226-4.077,1.384-8.363,1.384-6.024,0-12.084.327-14.889-2.177-2.809-2.5-4.963-4.963-5.837-11.581-.829-6.274-.362-11.495-1.042-15.063-1.045-5.486-2.316-6.121-3.483-6.792-1.206-.693-3.149-.871-6.617-.871h-6.857l.139,14.715h0Zm17.86-50.351c0-4.468-2.011-7-4.211-8.1-3.531-1.765-5.179-1.505-13.65-1.505l.046,20.088c7.962,0,11.418-.522,13.951-2.026,1.852-1.1,3.863-3.801,3.863-8.456h0Z"/>
  <path class="cls-1" d="m144.321.858c15.859,0,28.589,4.525,38.195,13.577,9.606,9.052,14.409,21.524,14.409,37.413,0,5.129-.481,10.108-1.447,14.935-.969,4.827-2.568,9.53-4.803,14.106-2.238,4.576-5.032,8.55-8.385,11.919-3.356,3.372-7.626,6.085-12.81,8.146s-11.03,3.094-17.536,3.094h-30.036c-6.202,0-10.649-1.56-13.343-4.679-2.694-3.116-4.041-8.75-4.041-16.896V18.81c0-11.968,5.795-17.952,17.384-17.952h22.413,0Zm-1.275,76.342c2.617-.119,2.606-.012,4.58-.595,1.392-.411,2.268-.623,4.045-2.082,1.78-1.456,3.045-3.023,3.866-5.116.549-1.398,1.059-3.998,1.315-6.789.179-1.955.599-8.845.541-13.138-.053-3.937-.942-11.254-1.797-13.324-.675-1.634-1.258-3.91-3.212-5.948-1.025-1.069-2.678-1.935-3.858-2.039-2.431-.215-2.685-.224-6.033-.147l.553,49.179h0Z"/>
</svg>