<?xml version="1.0" encoding="UTF-8"?>
<svg id="Layer_1" data-name="Layer 1" xmlns="http://www.w3.org/2000/svg" viewBox="0 0 583.4335 158.8259">
  <defs>
    <style>
      .cls-1 {
        fill: #7c9a79;
        stroke-width: 1.3px;
      }

      .cls-1, .cls-2 {
        stroke: #000;
        stroke-miterlimit: 10;
      }

      .cls-2 {
        fill: none;
        stroke-width: 2.2px;
      }

      .cls-3 {
        stroke-width: 0px;
      }
    </style>
  </defs>
  <g id="Layer_1-2" data-name="Layer 1">
    <path class="cls-1" d="m159.1105,67.3524c0,4.9-1.8,7-5.6,7-1.9,0-4-.1-4.9-1.1s-1.3-3.1-1.3-5.7v-20.9c0-1.9.6-3.3,1.6-4.3s2.2-1.2,3.9-1.2h10.2c4.1,0,7.2.9,9.7,2.8s3.7,4.1,3.7,7.1c0,2.2-.3,3.9-1.2,5.2-.9,1.3-1.5,1.3-3.3,2.6,1,.6,1.6.6,3,2s1.9,3.6,1.9,5.7c0,2.2-.2,3.7-.6,4.9-.4,1.2-1.3,2.1-2,2.5-.8.4-1.3.4-2.7.4-1.9,0-3.9.1-4.8-.7-.9-.8-1.6-1.6-1.9-3.7-.3-2-.1-3.7-.3-4.9-.3-1.8-.7-2-1.1-2.2-.4-.2-1-.3-2.1-.3h-2.2v4.8Zm5.8-16.2c0-1.4-.6-2.3-1.4-2.6-1.1-.6-1.7-.5-4.4-.5v6.5c2.6,0,3.7-.2,4.5-.7.7-.4,1.3-1.2,1.3-2.7Z"/>
    <path class="cls-1" d="m193.0105,74.4524c-4.1,0-7.5-1.1-10.2-3.2s-3.8-4.7-3.8-8.4c0-4,1.4-6.8,4-9.2.8-.7,1.6-1.2,2.4-1.7,3-1.6,5.9-1.6,7.4-1.5,1.8,0,4.3.3,7,1.7,1.3.7,2.4,1.9,2.9,2.6s.7,1.4.7,1.4c.2.8.4,1.4.4,2.1s-.2,1.7-.3,2-.3.6-.3.6c-.1.1-.2.3-.3.4-.2.3-.5.7-1.3,1.4-.3.2-1.1.8-1.6.9-.6.2-1.9.4-2.7.4l-6.4.1c.3.3.7.7.9.9.6.4.9.4,1.5.6.3.1.9.2,1.6.2,1,0,1.3-.1,1.8-.1.5-.1,1-.3,1.8-.5.9-.3,1.6-.5,2.2-.6.9-.2,1.9-.1,2.2,0,.4.2.6.2.9.6.3.4.5.9.5,1.2,0,.4.1,1.5-.5,2.4-.5.9-1.1,1.7-2.1,2.5-1,.9-1.7,1.6-3.3,2.2-1.3999.5-3.5999,1-5.3999,1Zm-2.5-14.9c2.3,0,2,0,2.2,0,.5-.1.7-.4.9-1,.1-.5.2-.8.1-1.6-.1-.8-.3-1-.6-1.2-.4-.1-.6-.1-.8.1-.3.1-.6.5-1,1.4-.4.6-.5,1.1-.8,2.3Z"/>
    <path class="cls-1" d="m220.1105,57.4524c.1-.7.4-1.8.1-1.9-.2-.1-.6.2-1.1.9-.5.7-.8,1.8-.9,2.1-.1.5-.4,1.4-.3,2.5.1,1.7.4,2.5.9,3.1.3.4,1.2,1.4,2.8,1.5,1.7.1,2.7-.1,3.9-.4.5-.1,1.9-.8,2.7-1,.8-.3,1.3-.3,1.8-.3.4.1.7.2,1.1.5.3.2.4.4.8,1,.1.2.3,1.2.2,1.9q-.1.5-.4,1.1c-.3.6-.6,1.2-1.2,1.9-.5.6-1,1-1.6,1.4s-2.4,1.3-3.7,1.7c-1.3.4-3.8.7-5.2.7-4.2,0-6.9-.8-9.6-3-2.7-2.2-4-5.3-4-9.2,0-2.5.6-4.7,1.8-6.5,1.2-1.9,2.9-3.3,5.1-4.2,2.2-1,4.6-1.4,7.4-1.4,1.3,0,3.5.2,4.6.4.5.1,1.6.5,2.2.8.5.3,1.1.6,1.6,1.2.2.2.9,1,1.6,1.9.4.5.7,1.6.8,2.6.1,1.3,0,1.9-.1,2.7-.2,1-.6,1.8-1.2,2.4-.5.5-1.1.8-2.1,1.3-.6.3-2,.8-2.8.9-.5,0-.9.1-1.6,0-.6-.1-.8-.1-1.6-.3-.4-.1-1.2-.3-1.8-1.2-.2-.4-.3-.5-.5-1.4-.2-.6,0-1.6,0-2,.1-.5.2-1.2.3-1.7Z"/>
    <path class="cls-1" d="m259.8105,60.1524c0,5.6.2,9.6-.2,11.8-.4,2-1,3.8-1.6,5.3-.6,1.4-1.3,2.4-2.3,3.5s-2.4,2-4,2.5c-1.6.6-3.3.7-5.4.7-1.7,0-3.7-.3-5.2-.8s-2.8-1.2-3.7-1.9c-.9-.7-1.3-1.3-1.7-2-.5-.7-.7-1.7-.7-2.2s.1-1.1.3-1.6c.2-.4.7-.9,1.1-1.1.7-.3,1.4-.2,1.9-.1,1.4.2,3.2,1.4,3.3,1.5.6.3,1.1.6,1.8.8.6.1,1.1.2,1.8.1.8,0,1.7-.5,2-.9.4-.5.8-1.1.8-2.1-.4.2-1.2.4-1.8.5s-1.5.2-2.1.3h-1.5c-.6,0-1.6-.3-2-.4-1.6-.5-2.1-.8-2.8-1.3-.9-.7-2.1-2.4-2.8-4-.6-1.6-.9-3.3-.9-5.1s0-3.4.1-4.7c0-1.3.2-2.4.3-3.4.1-.4.2-1.3.5-2.1.1-.4.3-.9.8-1.3.3-.3.6-.6,1.2-.8.3-.2.7-.3,1-.4.6-.1,1.7-.2,2.5-.2.6,0,1.4.1,2,.2.5.1,1.2.4,1.7.8.7.6,1.4,1.9,1.4,3.4v10.3c0,.4.1.5.2.6.1.2.4.3.6.4.2.1.5.1.8,0,.1,0,.5-.3.6-.5,0,0,.1-.2.1-.8.1-.7,0-1.5,0-2.9l.1-7.3c.1-1,.4-1.8.9-2.5.5-.6,1.1-.9,2.1-1.3.9-.3,1.9-.3,3.3-.3.9,0,1.7.2,2.3.3.6.1,1.3.7,1.6,1,.6.5,1,1.4,1.1,2,.2.9.1,1.7.2,2.6.3.8.3,2,.3,3.4Z"/>
    <path class="cls-1" d="m301.6105,67.3524c0,2.3-.3,3.7-1.3,4.7s-2.4,2.1-4.4,2.1c-2.1,0-3.8-.9-4.8-1.8s-1.5-2.3-1.5-4.6l.2-7.9v-6.1c0-1.4,0-1,.1-3.8,0-2.1,0-2.6.2-3.5.3-1.6.7-2.3.9-2.5.3-.4.7-1.2,1.7-1.8,1.3-.9,2.7-.9,3.2-.8.5,0,1.6,0,2.8.7,1.1.6,1.6,1.5,1.9,1.9.5.9.7,1.7.8,2.6.2.9.2,1.7.2,2.3-.1001,6.0999-.1001,12.2999,0,18.4999Z"/>
    <path class="cls-1" d="m347.6105,41.2524c5.1,0,9.2,1.5,12.3,4.4,3.1,2.9,4.7,6.9,4.7,12.1,0,1.7-.2,3.3-.5,4.8-.3,1.6-.8,3.1-1.6,4.6-.7,1.5-1.6,2.8-2.7,3.8-1.1,1.1-2.5,2-4.1,2.6-1.7.7-3.6,1-5.7,1h-9.7c-2,0-3.4-.5-4.3-1.5s-1.3-2.8-1.3-5.5v-20.5c0-3.9,1.9-5.8,5.6-5.8h7.3Zm-.4,24.7q.8,0,1.5-.2c.4-.1.7-.2,1.3-.7.6-.5,1-1,1.2-1.7.2-.5.3-1.3.4-2.2.1-.6.2-2.9.2-4.2s-.3-3.6-.6-4.3c-.2-.5-.4-1.3-1-1.9-.3-.3-.9-.6-1.2-.7-.8-.1-.9-.1-1.9,0l.1,15.9001Z"/>
    <path class="cls-1" d="m405.4105,50.1524c2.9,0,6,.6,8.2,2,2,1.3,2.7,2.9,2.8,3.8.1.8.1,1.7-.6,2.3-.4.3-.9.5-1.8.6-.7,0-1.5,0-2.1-.3-.7-.3-1.2-1-1.9-1.5-.6-.3-1.4-.9-2-1.1s-.8-.3-1.5-.3c-1.1-.1-1.6.9-1.3,1.1.4.3,1.1.4,1.5.6.5.1,1,.3,2.2.7.7.2,2.1.8,2.8,1.1,2.5,1,3.9,2.1,4.9,3.2.9,1.1,1.2,2.7,1.2,4.5,0,.9-.2,1.8-.7,2.6-.5.9-1.1,1.5-2.2,2.5-1.5,1.2-2.2,1.6-3.9,2.1-1.7.5-3.8.7-5.9.7-4.3,0-7.5-1.2-9.6-3.2-1-1-1.6-1.8-1.6-2.8,0-.9.3-1.7.6-2.1.4-.5.7-.9,2-.9,1-.1,1.4.3,2.8.9s3.5,1.4,4.5,1.3c1.2-.1,1.7-.1,2.2-.4.1-.1-.4-.5-1.4-.7-.9-.2-3.4-.5-4.9-1.3-1.4-.7-1.4-.6-2.9-1.8-1.2-1-1.5-1.5-1.9-2.3s-.9-1.9-.8-3.5c.2-2.2,1.2-4.2,3.4-5.7,2.1-1.5001,4.8-2.1001,7.9-2.1001Z"/>
    <path class="cls-1" d="m439.7105,74.3524c-1.3-.1-3.1-.5-4.2-1.1-1.3-.8-1.9-1.3-3-2.5-2.2-2.5-2.2-7.9-2.2-9.3,0-4.8,1.9-7.6,4-9.1,1.6-1.1,3.1-2,5.7-2,1.5,0,3.7.6,5.9,2.4,1.3-1.3,2.4-1.8,4.4-1.9,1.8-.1,3.4.3,4.3,1.1.9.9,1.5,2,1.5,3.9v8.9c0,3.1-.1,6.2-.6,8.4-.4,2.2-.8,3.8-1.8,5.6-1,1.7-2.4,3-4.1,3.8-1.8.8-3.9,1.3-6.5,1.3-1.8-.2-4-.4-5.2-.9-1-.4-2-.9-2.7-1.4-.7-.4-2-1.7-2.4-2.3,0,0-.6-.8-.7-1.7-.1-.9.1-1.5.5-2,.5-.7,1.7-1.2,2.5-1.1.5,0,1.3,0,2.5.7,1.6.9,2.3,1.4,3.3,1.5,1.7.2,3.2-.7,3.8-2.8-1.1999.2-3.6999.6-4.9999.5Zm5.2-8.1l-.1-7.7c-.1-.4-.5-1.1-1.2-1.1s-1,.6-1.3,1.2c-.3.8-.4,1.4-.4,2.1-.1.7-.1,1.8,0,2.4.1,1.5.3,2.5.6,2.9.3.4.8.7,1.5.7.5,0,.8-.3.9-.5Z"/>
    <path class="cls-1" d="m473.2105,61.4524c0-1.9-.4-2.2-1.1-2.2-.7-.1-1.3.2-1.5,1.3-.2,1.5,0,1.6-.1,2.5v5.7c-.2,2.5-.5,3-1.3,3.8-.9.9-1.9,1.4-4.2,1.5-1.9,0-3.6-.8-4.3-1.4-.9-.8-1.6-2.3-1.6-4.4v-12.2c0-1.9.7-3.5,1.6-4.4.8-.7,2.1-1.2,3.3-1.2s2.3.2,3.1.5c.9.4,1.5.8,2.4,1.6.2-.1,3.1-1.7,5.4-2,.9-.1,1.9-.1,1.9-.1.4,0,2.2.1,3,.2.4.1,1.5.5,2,.9.4.4,1.3,1.1,1.8,2.4s.9,4.2.9,8.3c0,2.1.1,3,0,4.3-.1,2.1-.1,2.3-.2,2.9-.1.8-.4,1.6-.6,1.8-.2.3-.3,1-1.1,1.5-.5.4-2,1.1-3.5,1.1-1.9,0-4-.5-4.9-1.6-.9-1-1.1-1.8-1.1-3.5l.1001-7.2999Z"/>
    <path class="cls-1" d="m275.6105,57.6524c.1-.7.4-1.8.1-1.9-.2-.1-.6.2-1.1.9-.5.7-.8,1.8-.9,2.1-.1.5-.4,1.4-.3,2.5.1,1.7.4,2.5.9,3.1.3.4,1.2,1.4,2.8,1.5,1.7.1,2.7-.1,3.9-.4.5-.1,1.9-.8,2.7-1,.8-.3,1.3-.3,1.8-.3.4.1.7.2,1.1.5.3.2.4.4.8,1,.1.2.3,1.2.2,1.9q-.1.5-.4,1.1c-.3.6-.6,1.2-1.2,1.9-.5.6-1,1-1.6,1.4s-2.4,1.3-3.7,1.7c-1.3.4-3.8.7-5.2.7-4.2,0-6.9-.8-9.6-3s-4-5.3-4-9.2c0-2.5.6-4.7,1.8-6.5,1.2-1.9,2.9-3.3,5.1-4.2,2.2-1,4.6-1.4,7.4-1.4,1.3,0,3.5.2,4.6.4.5.1,1.6.5,2.2.8.5.3,1.1.6,1.6,1.2.2.2.9,1,1.6,1.9.4.5.7,1.6.8,2.6.1,1.3,0,1.9-.1,2.7-.2,1-.6,1.8-1.2,2.4-.5.5-1.1.8-2.1,1.3-.6.3-2,.8-2.8.9-.5,0-.9.1-1.6,0-.6-.1-.8-.1-1.6-.3-.4-.1-1.2-.3-1.8-1.2-.2-.4-.3-.5-.5-1.4-.2-.6,0-1.6,0-2,.1-.5.2-1.2.3-1.7Z"/>
    <path class="cls-1" d="m317.9105,74.1524c-4.1,0-7.5-1.1-10.2-3.2s-3.8-4.7-3.8-8.4c0-4,1.4-6.8,4-9.2.8-.7,1.6-1.2,2.4-1.7,3-1.6,5.9-1.6,7.4-1.5,1.8,0,4.3.3,7,1.7,1.3.7,2.4,1.9,2.9,2.6s.7,1.4.7,1.4c.2.8.4,1.4.4,2.1s-.2,1.7-.3,2c-.1.3-.3.6-.3.6-.1.1-.2.3-.3.4-.2.3-.5.7-1.3,1.4-.3.2-1.1.8-1.6.9-.6.2-1.9.4-2.7.4l-6.4.1.9.9c.6.4.9.4,1.5.6.3.1.9.2,1.6.2,1,0,1.3-.1,1.8-.1.5-.1,1-.3,1.8-.5.9-.3,1.6-.5,2.2-.6.9-.2,1.9-.1,2.2,0,.4.2.6.2.9.6s.5.9.5,1.2c0,.4.1,1.5-.5,2.4-.5.9-1.1,1.7-2.1,2.5-1,.9-1.7,1.6-3.3,2.2-1.4.6-3.5,1-5.4,1Zm-2.5-14.8c2.3,0,2,0,2.2,0,.5-.1.7-.4.9-1,.1-.5.2-.8.1-1.6-.1-.8-.3-1-.6-1.2-.4-.1-.6-.1-.8.1-.3.1-.6.5-1,1.4-.3.6-.5,1.1-.8,2.3Z"/>
    <path class="cls-1" d="m380.2105,74.4524c-4.1,0-7.5-1.1-10.2-3.2s-3.8-4.7-3.8-8.4c0-4,1.4-6.8,4-9.2.8-.7,1.6-1.2,2.4-1.7,3-1.6,5.9-1.6,7.4-1.5,1.8,0,4.3.3,7,1.7,1.3.7,2.4,1.9,2.9,2.6s.7,1.4.7,1.4c.2.8.4,1.4.4,2.1s-.2,1.7-.3,2c-.1.3-.3.6-.3.6-.1.1-.2.3-.3.4-.2.3-.5.7-1.3,1.4-.3.2-1.1.8-1.6.9-.6.2-1.9.4-2.7.4l-6.4.1.9.9c.6.4.9.4,1.5.6.3.1.9.2,1.6.2,1,0,1.3-.1,1.8-.1.5-.1,1-.3,1.8-.5.9-.3,1.6-.5,2.2-.6.9-.2,1.9-.1,2.2,0,.4.2.6.2.9.6s.5.9.5,1.2c0,.4.1,1.5-.5,2.4-.5.9-1.1,1.7-2.1,2.5-1,.9-1.7,1.6-3.3,2.2-1.3.6-3.5,1-5.4,1Zm-2.5-14.8c2.3,0,2,0,2.2,0,.5-.1.7-.4.9-1,.1-.5.2-.8.1-1.6-.1-.8-.3-1-.6-1.2-.4-.1-.6-.1-.8.1-.3.1-.6.5-1,1.4-.3.6-.5,1.1-.8,2.3Z"/>
    <path class="cls-1" d="m428.7105,69.0524c0,1.7-.2,2.8-1,3.6-.8.8-1.9,1.6-3.5,1.6s-3-.7-3.8-1.4c-.8-.7-1.2-1.8-1.2-3.5l.1-6v-4.7c0-1,0-.7.1-2.9,0-1.6,0-2,.1-2.7.2-1.2.6-1.8.7-1.9.2-.3.6-.9,1.3-1.3,1-.6,2.1-.6,2.5-.6s1.3,0,2.2.6c.9.5,1.3,1.1,1.5,1.4.4.7.5,1.3.7,2,.1.7.1,1.3.1,1.7.0999,4.7.0999,9.4.2,14.0999Z"/>
    <polygon class="cls-1" points="405.7105 56.2524 405.7105 56.6524 409.9105 58.2524 408.8105 56.6524 405.7105 56.2524"/>
    <path class="cls-1" d="m499.2105,50.1524c2.9,0,6,.6,8.2,2,2,1.3,2.7,2.9,2.8,3.8.1.8.1,1.7-.6,2.3-.4.3-.9.5-1.8.6-.7,0-1.5,0-2.1-.3-.7-.3-1.2-1-1.9-1.5-.6-.3-1.4-.9-2-1.1s-.8-.3-1.5-.3c-1.1-.1-1.6.9-1.3,1.1.4.3,1.1.4,1.5.6.5.1,1,.3,2.2.7.7.2,2.1.8,2.8,1.1,2.5,1,3.9,2.1,4.9,3.2.9,1.1,1.2,2.7,1.2,4.5,0,.9-.2,1.8-.7,2.6s-1.1,1.5-2.2,2.5c-1.5,1.2-2.2,1.6-3.9,2.1-1.7.5-3.8.7-5.9.7-4.3,0-7.5-1.2-9.6-3.2-1-1-1.6-1.8-1.6-2.8,0-.9.3-1.7.6-2.1.4-.5.7-.9,2-.9,1-.1,1.4.3,2.8.9s3.5,1.4,4.5,1.3c1.2-.1,1.7-.1,2.2-.4.1-.1-.4-.5-1.4-.7-.9-.2-3.4-.5-4.9-1.3-1.4-.7-1.4-.6-2.9-1.8-1.2-1-1.5-1.5-1.9-2.3s-.9-1.9-.8-3.5c.2-2.2,1.2-4.2,3.4-5.7,2.0999-1.5001,4.8999-2.1001,7.8999-2.1001Z"/>
    <polygon class="cls-1" points="500.9105 56.0524 500.3105 56.7524 505.7105 58.5524 500.9105 56.0524"/>
  </g>
  <g id="Layer_2" data-name="Layer 2">
    <path class="cls-2" d="m179.1105,32.4524C238.9105,9.3524,290.7105,3.0525,325.1105,1.5525c71.4-3.2,129,11.1,159,26.3,23.2,11.8,42,27.5,42,27.5,7.3,6.1,15.8,13.2,24.7,24.4,20.6,25.9,30.5,57.2,30.5,57.2h0c-7.9-6.2-20.6-14.7-38.1-20.3-16-5.2-29-5.8-37.5-6.1-9.2-.3-23.3-.1-49,5.6-22.3,4.9-25.9,7.8-64.3,19.7-26.9,8.3-40.7,12.5-59.3,16-22.9,4.3-40.6,5.2-45.7,5.5-32.9,1.6-57.9-2.3-73.7-4.9-35.3-5.7-60.9-14.7-67.5-17.1-29.3-10.5-49.6-22.2-67-32.3C58.1105,90.7524,30.6105,72.8524.7105,47.5524"/>
    <path class="cls-3" d="m126.5105,98.0524h-1.9v-1.9c0-.8.2-1.5.5-2s.8-.7,1.4-.7v.9c-.6,0-.9.6-.9,1.8h.9v1.9Zm3,0h-1.9v-1.9c0-.8.2-1.5.5-2s.8-.7,1.4-.7v.9c-.6,0-.9.6-.9,1.8h.9v1.9Z"/>
    <path class="cls-3" d="m137.8105,107.4524c-1.9,0-3.5-.6-4.7-1.9s-1.7-3-1.7-5.2.6-3.9,1.7-5.2c1.2-1.3,2.7-1.9,4.7-1.9,1.5,0,2.8.4,3.8,1.2s1.6,1.9,1.8,3.2h-1.9c-.1-.9-.5-1.6-1.1-2.1-.7-.5-1.5-.8-2.6-.8-1.4,0-2.5.5-3.3,1.4-.8,1-1.2,2.3-1.2,4.1s.4,3.2,1.2,4.1c.8,1,1.9,1.4,3.3,1.4,1.1,0,1.9-.3,2.6-.8.7-.5,1-1.3,1.1-2.3h1.9c-.1,1.5-.7,2.6-1.7,3.4-1.1.9999-2.4,1.4-3.9,1.4Z"/>
    <path class="cls-3" d="m150.7105,98.9524c-.3-.1-.6-.1-1.1-.1-.9,0-1.7.5-2.3,1.4v7h-1.7v-10h1.8v1.4c.7-1.1,1.6-1.6,2.6-1.6.3,0,.5,0,.8.1v1.8h-.1Z"/>
    <path class="cls-3" d="m158.5105,106.1524c-.9.8-2.1,1.3-3.5,1.3-1,0-1.8-.3-2.4-.8s-1-1.2-1-2.1c0-2.3,2-3.5,6-3.5h.9c0-.7,0-1.2-.1-1.6-.1-.3-.3-.6-.6-.8s-.9-.3-1.6-.3c-1.6,0-2.4.6-2.4,1.7h-1.8c.1-2,1.6-3.1,4.3-3.1,1.3,0,2.3.3,3,.8s1.1,1.5,1.1,3v6.4h-1.8v-1h-.1Zm0-1.6v-2.2h-1.2c-2.6,0-3.9.7-3.9,2.1,0,.5.2.9.6,1.2s.9.4,1.5.4,1.1-.1,1.7-.4,1-.7,1.3-1.1Z"/>
    <path class="cls-3" d="m165.3105,98.5524v8.6h-1.8v-8.6h-1.5v-1.4h1.5v-.9c0-2.1.9-3.2,2.8-3.2.6,0,1,0,1.3.1v1.5c-.4-.1-.7-.1-1.1-.1s-.8.1-1,.4-.3.7-.3,1.3v.9h1.9v1.4h-1.8Z"/>
    <path class="cls-3" d="m173.7105,107.1524c-.4.1-.8.1-1.3.1-.7,0-1.3-.1-1.6-.4s-.5-.6-.6-1-.1-1-.1-1.7v-5.7h-1.2v-1.4h1.2v-2.5h1.8v2.5h1.6v1.4h-1.6v5.8c0,.7.1,1.1.3,1.3.2.2.4.3.7.3s.6,0,.9-.1v1.4001h-.1Z"/>
    <path class="cls-3" d="m180.3105,107.5524c-1.5,0-2.6-.5-3.5-1.4s-1.3-2.2-1.3-3.8.4-2.9,1.3-3.8c.9-.9,2-1.4,3.4-1.4s2.6.5,3.4,1.4c.8.9,1.3,2.2,1.3,3.9v.4h-7.5c.1,1.2.4,2,1,2.6s1.3.8,2.1.8c.6,0,1.2-.2,1.7-.5s.8-.8.8-1.3h1.8c-.1,1-.6,1.8-1.4,2.4s-2,.7-3.1.7Zm2.6-6.2c-.1-1-.5-1.7-1-2.2s-1.1-.7-1.8-.7-1.3.2-1.8.7-.8,1.2-1,2.2h5.6Z"/>
    <path class="cls-3" d="m193.3105,106.0524c-.8,1-1.7,1.4-2.8,1.4-1.3,0-2.3-.5-3-1.4s-1.1-2.2-1.1-3.8.4-2.9,1.2-3.9c.8-.9,1.8-1.4,3-1.4,1.1,0,2,.3,2.7,1v-4.6h1.8v13.8h-1.8v-1.1h0Zm0-1.7v-4.7c-.8-.8-1.6-1.2-2.6-1.2-.8,0-1.4.3-1.8,1-.5.7-.7,1.6-.7,2.9,0,1.2.2,2.2.6,2.8.4.6,1,1,1.8,1,1,0,1.9-.6,2.7-1.8Z"/>
    <path class="cls-3" d="m205.6105,98.5524v8.6h-1.8v-8.6h-1.5v-1.4h1.5v-.9c0-2.1.9-3.2,2.8-3.2.6,0,1,0,1.3.1v1.5c-.4-.1-.7-.1-1.1-.1s-.8.1-1,.4-.3.7-.3,1.3v.9h1.9v1.4h-1.8Z"/>
    <path class="cls-3" d="m215.1105,98.7524c-.3-.1-.6-.1-1.1-.1-.9,0-1.7.5-2.3,1.4v7h-1.8v-10h1.8v1.4c.7-1.1,1.6-1.6,2.6-1.6.3,0,.5,0,.8.1v1.8Z"/>
    <path class="cls-3" d="m220.6105,97.0524c1.4,0,2.6.5,3.4,1.4.8.9,1.3,2.2,1.3,3.9s-.4,2.9-1.3,3.8c-.8.9-2,1.4-3.4,1.4s-2.5-.5-3.4-1.4c-.8-.9-1.3-2.2-1.3-3.8,0-1.7.4-2.9,1.3-3.9.9-.9,2-1.4,3.4-1.4Zm0,9.1c.8,0,1.5-.3,2.1-1s.8-1.6.8-2.9-.3-2.2-.8-2.9c-.5-.6-1.2-1-2.1-1-.8,0-1.5.3-2.1,1-.5.6-.8,1.6-.8,2.9s.3,2.2.8,2.9,1.3,1,2.1,1Z"/>
    <path class="cls-3" d="m241.0105,107.1524h-1.8v-6.4c0-.8-.1-1.4-.4-1.8-.2-.4-.6-.5-1.2-.5-.9,0-1.7.5-2.5,1.6v7.1h-1.8v-6.4c0-.8-.1-1.4-.4-1.8s-.6-.5-1.2-.5c-.9,0-1.7.5-2.5,1.6v7.1h-1.8v-10h1.8v1.3c.8-1,1.8-1.5,2.8-1.5,1.5,0,2.4.6,2.8,1.8.7-.8,1.2-1.3,1.7-1.5s.9-.3,1.4-.3c2,0,3.1,1.2,3.1,3.7v6.4999h0Z"/>
    <path class="cls-3" d="m252.9105,107.1524c-.4.1-.8.1-1.3.1-.7,0-1.3-.1-1.6-.4s-.5-.6-.6-1-.1-1-.1-1.7v-5.7h-1.2v-1.4h1.2v-2.5h1.8v2.5h1.6v1.4h-1.6v5.8c0,.7.1,1.1.3,1.3s.4.3.7.3.6,0,.9-.1v1.4001h-.1Z"/>
    <path class="cls-3" d="m257.3105,98.4524c.9-1,1.9-1.5,3-1.5,2.2,0,3.4,1.2,3.4,3.7v6.5h-1.8v-6.4c0-.8-.1-1.4-.4-1.8s-.8-.5-1.4-.5c-.9,0-1.8.5-2.7,1.6v7.1h-1.8v-13.8h1.8v5.0999h-.1Z"/>
    <path class="cls-3" d="m270.7105,107.3524c-1.5,0-2.6-.5-3.5-1.4s-1.3-2.2-1.3-3.8.4-2.9,1.3-3.8,2-1.4,3.4-1.4,2.6.5,3.4,1.4,1.3,2.2,1.3,3.9v.4h-7.5c.1,1.2.4,2,1,2.6s1.3.8,2.1.8c.6,0,1.2-.2,1.7-.5s.8-.8.8-1.3h1.8c-.1,1-.6,1.8-1.4,2.4s-1.9.7-3.1.7Zm2.6-6.2c-.1-1-.5-1.7-1-2.2s-1.1-.7-1.8-.7-1.3.2-1.8.7-.8,1.2-1,2.2h5.6Z"/>
    <path class="cls-3" d="m282.4105,93.6524h5.1c1.1,0,2.1.1,2.8.3.8.2,1.4.7,1.8,1.4.4.7.7,1.5.7,2.3,0,1.4-.4,2.4-1.3,3.2-.9.7-2.2,1.1-3.8,1.1h-3.5v5.5h-1.8v-13.8h0Zm1.8,6.6h3.5c1.2,0,2-.2,2.5-.7.5-.4.7-1.1.7-1.9,0-.6-.1-1-.4-1.5-.3-.4-.6-.7-1-.8-.4-.1-1-.2-1.8-.2h-3.4v5.1h-.1Z"/>
    <path class="cls-3" d="m300.3105,106.1524c-.9.8-2.1,1.3-3.5,1.3-1,0-1.8-.3-2.4-.8s-1-1.2-1-2.1c0-2.3,2-3.5,6-3.5h.9c0-.7,0-1.2-.1-1.6-.1-.3-.3-.6-.6-.8s-.9-.3-1.6-.3c-1.6,0-2.4.6-2.4,1.7h-1.8c.1-2,1.6-3.1,4.3-3.1,1.3,0,2.3.3,3,.8s1.1,1.5,1.1,3v6.4h-1.8v-1h-.1Zm0-1.6v-2.2h-1.2c-2.6,0-3.9.7-3.9,2.1,0,.5.2.9.6,1.2s.9.4,1.5.4,1.1-.1,1.7-.4c.5-.3,1-.7,1.3-1.1Z"/>
    <path class="cls-3" d="m308.2105,107.5524c-2.7,0-4.2-1.1-4.3-3.2h1.8c0,1.2.8,1.8,2.5,1.8.7,0,1.3-.2,1.7-.5.4-.3.6-.7.6-1.1,0-.5-.2-.8-.6-1s-1.2-.4-2.3-.7-2-.6-2.6-1-.8-1-.8-1.9c0-.8.3-1.5,1-2.1.7-.5,1.6-.8,2.7-.8,2.6,0,3.9.9,4,2.8h-1.8c-.1-.9-.8-1.4-2.1-1.4-.6,0-1.1.1-1.5.3s-.6.6-.6,1,.2.7.5.8c.3.2,1.1.4,2.3.7,1.2.3,2.1.6,2.7,1s.9,1.1.9,2-.4,1.7-1.1,2.3c-.8.7001-1.8,1.0001-3,1.0001Z"/>
    <path class="cls-3" d="m318.2105,107.0524c-.4.1-.8.1-1.3.1-.7,0-1.3-.1-1.6-.4-.3-.3-.5-.6-.6-1s-.1-1-.1-1.7v-5.7h-1.2v-1.4h1.2v-2.5h1.8v2.5h1.6v1.4h-1.6v5.8c0,.7.1,1.1.3,1.3s.4.3.7.3.6,0,.9-.1v1.4001h-.1Z"/>
    <path class="cls-3" d="m323.0105,107.6524c0,.8-.2,1.5-.5,2s-.8.7-1.4.7v-.9c.6,0,.9-.6.9-1.8h-.9v-1.9h1.9v1.9Z"/>
    <path class="cls-3" d="m331.1105,93.3524h4.4c4.7,0,7,2.3,7,6.8,0,4.6-2.3,7-7,7h-4.4v-13.8Zm1.8,12.2h2.5c2,0,3.4-.5,4.1-1.4s1.1-2.2,1.1-3.9c0-1.6-.4-2.9-1.1-3.8s-2.1-1.4-4.1-1.4h-2.5v10.5Z"/>
    <path class="cls-3" d="m348.6105,107.5524c-1.5,0-2.6-.5-3.5-1.4s-1.3-2.2-1.3-3.8.4-2.9,1.3-3.8,2-1.4,3.4-1.4,2.6.5,3.4,1.4,1.3,2.2,1.3,3.9v.4h-7.5c.1,1.2.4,2,1,2.6s1.3.8,2.1.8c.6,0,1.2-.2,1.7-.5s.8-.8.8-1.3h1.8c-.1,1-.6,1.8-1.4,2.4-1,.4-2,.7-3.1.7Zm2.6-6.2c-.1-1-.5-1.7-1-2.2s-1.1-.7-1.8-.7-1.3.2-1.8.7-.8,1.2-1,2.2h5.6Z"/>
    <path class="cls-3" d="m358.7105,107.4524c-2.7,0-4.2-1.1-4.3-3.2h1.8c0,1.2.8,1.8,2.5,1.8.7,0,1.3-.2,1.7-.5.4-.3.6-.7.6-1.1,0-.5-.2-.8-.6-1s-1.2-.4-2.3-.7c-1.2-.3-2-.6-2.6-1s-.8-1-.8-1.9c0-.8.3-1.5,1-2.1.7-.5,1.6-.8,2.7-.8,2.6,0,3.9.9,4,2.8h-1.8c-.1-.9-.8-1.4-2.1-1.4-.6,0-1.1.1-1.5.3s-.6.6-.6,1,.2.7.5.8c.3.2,1.1.4,2.3.7,1.2.3,2.1.6,2.7,1s.9,1.1.9,2-.4,1.7-1.1,2.3-1.8,1.0001-3,1.0001Z"/>
    <path class="cls-3" d="m366.4105,95.3524h-1.8v-1.9h1.8v1.9Zm0,11.9h-1.8v-10h1.8v10Z"/>
    <path class="cls-3" d="m377.6105,106.3524c0,3.2-1.4,4.8-4.3,4.8-1.3,0-2.2-.3-3-.8-.7-.5-1.1-1.3-1.1-2.2h1.8c0,1.1.7,1.6,2.2,1.6.8,0,1.5-.2,1.9-.7s.7-1.3.7-2.7v-.5c-.8,1-1.7,1.4-2.8,1.4-1.3,0-2.3-.5-3-1.4s-1.1-2.2-1.1-3.8.4-2.9,1.2-3.9,1.8-1.4,3-1.4c1.1,0,2,.3,2.7,1v-.8h1.8v9.4h0Zm-1.8-2.1v-4.7c-.8-.8-1.6-1.2-2.6-1.2-.8,0-1.4.3-1.8,1-.5.7-.7,1.6-.7,2.9,0,1.2.2,2.2.6,2.8.4.6,1,1,1.8,1,1-.0999,1.9-.5999,2.7-1.8Z"/>
    <path class="cls-3" d="m382.1105,98.4524c.9-1,1.9-1.5,3-1.5,2.2,0,3.4,1.2,3.4,3.7v6.5h-1.8v-6.4c0-.8-.1-1.4-.4-1.8s-.8-.5-1.4-.5c-.9,0-1.8.5-2.7,1.6v7.1h-1.8v-10h1.8v1.3h-.1Z"/>
    <path class="cls-3" d="m395.5105,107.4524c-1.5,0-2.6-.5-3.5-1.4s-1.3-2.2-1.3-3.8.4-2.9,1.3-3.8,2-1.4,3.4-1.4,2.6.5,3.4,1.4,1.3,2.2,1.3,3.9v.4h-7.5c.1,1.2.4,2,1,2.6s1.3.8,2.1.8c.6,0,1.2-.2,1.7-.5s.8-.8.8-1.3h1.8c-.1,1-.6,1.8-1.4,2.4s-2,.7-3.1.7Zm2.6-6.1c-.1-1-.5-1.7-1-2.2s-1.1-.7-1.8-.7-1.3.2-1.8.7-.8,1.2-1,2.2h5.6Z"/>
    <path class="cls-3" d="m408.7105,105.9524c-.8,1-1.7,1.4-2.8,1.4-1.3,0-2.3-.5-3-1.4s-1.1-2.2-1.1-3.8.4-2.9,1.2-3.9,1.8-1.4,3-1.4c1.1,0,2,.3,2.7,1v-4.6h1.8v13.8h-1.8v-1.1h0Zm0-1.7v-4.7c-.8-.8-1.6-1.2-2.6-1.2-.8,0-1.4.3-1.8,1-.5.7-.7,1.6-.7,2.9,0,1.2.2,2.2.6,2.8.4.6,1,1,1.8,1,1-.0999,1.9-.5999,2.7-1.8Z"/>
    <path class="cls-3" d="m420.9105,98.5524v8.6h-1.8v-8.6h-1.5v-1.4h1.5v-.9c0-2.1.9-3.2,2.8-3.2.6,0,1,0,1.3.1v1.5c-.4-.1-.7-.1-1.1-.1s-.8.1-1,.4-.3.7-.3,1.3v.9h1.9v1.4h-1.8Z"/>
    <path class="cls-3" d="m428.7105,96.9524c1.4,0,2.6.5,3.4,1.4s1.3,2.2,1.3,3.9-.4,2.9-1.3,3.8c-.8.9-2,1.4-3.4,1.4s-2.5-.5-3.4-1.4c-.8-.9-1.3-2.2-1.3-3.8,0-1.7.4-2.9,1.3-3.9s2-1.4,3.4-1.4Zm0,9c.8,0,1.5-.3,2.1-1,.5-.6.8-1.6.8-2.9s-.3-2.2-.8-2.9c-.5-.6-1.2-1-2.1-1-.8,0-1.5.3-2.1,1-.5.6-.8,1.6-.8,2.9s.3,2.2.8,2.9,1.3,1,2.1,1Z"/>
    <path class="cls-3" d="m440.8105,98.7524c-.2-.1-.6-.1-1.1-.1-.9,0-1.7.5-2.3,1.4v7h-1.8v-10h1.8v1.4c.7-1.1,1.6-1.6,2.6-1.6.2,0,.5,0,.8.1v1.8h0Z"/>
    <path class="cls-3" d="m451.9105,107.1524c-.4.1-.8.1-1.3.1-.7,0-1.3-.1-1.6-.4-.3-.3-.5-.6-.6-1s-.1-1-.1-1.7v-5.7h-1.2v-1.4h1.2v-2.5h1.8v2.5h1.6v1.4h-1.6v5.8c0,.7.1,1.1.3,1.3s.4.3.7.3.6,0,.9-.1v1.4001h-.1Z"/>
    <path class="cls-3" d="m456.4105,98.5524c.9-1,1.9-1.5,3-1.5,2.2,0,3.4,1.2,3.4,3.7v6.5h-1.8v-6.4c0-.8-.1-1.4-.4-1.8s-.8-.5-1.4-.5c-.9,0-1.8.5-2.7,1.6v7.1h-1.9v-13.8h1.8v5.0999Z"/>
    <path class="cls-3" d="m469.6105,107.3524c-1.5,0-2.6-.5-3.5-1.4s-1.3-2.2-1.3-3.8.4-2.9,1.3-3.8,2-1.4,3.4-1.4,2.6.5,3.4,1.4,1.3,2.2,1.3,3.9v.4h-7.5c.1,1.2.4,2,1,2.6s1.3.8,2.1.8c.6,0,1.2-.2,1.7-.5s.8-.8.8-1.3h1.8c-.1,1-.6,1.8-1.4,2.4s-2,.7-3.1.7Zm2.6-6.2c-.1-1-.5-1.7-1-2.2s-1.1-.7-1.8-.7-1.3.2-1.8.7-.8,1.2-1,2.2h5.6Z"/>
    <path class="cls-3" d="m489.6105,95.1524h-6.1v4.3h5.8v1.6h-5.8v6.2h-1.8v-13.8h7.9v1.7Z"/>
    <path class="cls-3" d="m515.2105,105.8524c-.9,1-1.9,1.5-3,1.5-2.2,0-3.4-1.2-3.4-3.7v-6.5h1.8v6.4c0,.8.1,1.4.4,1.8.3.4.8.5,1.4.5,1,0,1.9-.5,2.7-1.6v-7.1h1.8v10h-1.8v-1.3h.1Z"/>
    <path class="cls-3" d="m506.4105,107.1524c-.4.1-.8.1-1.3.1-.7,0-1.3-.1-1.6-.4-.3-.3-.5-.6-.6-1s-.1-1-.1-1.7v-5.7h-1.2v-1.4h1.2v-2.5h1.8v2.5h1.6v1.4h-1.6v5.8c0,.7.1,1.1.3,1.3s.4.3.7.3.6,0,.9-.1v1.4001h-.1Z"/>
    <path class="cls-3" d="m497.8105,105.8524c-.9,1-1.9,1.5-3,1.5-2.2,0-3.4-1.2-3.4-3.7v-6.5h1.8v6.4c0,.8.1,1.4.4,1.8s.8.5,1.4.5c1,0,1.9-.5,2.7-1.6v-7.1h1.8v10h-1.8v-1.3h.1Z"/>
    <path class="cls-3" d="m524.8105,98.7524c-.2-.1-.6-.1-1.1-.1-.9,0-1.7.5-2.3,1.4v7h-1.8v-10h1.8v1.4c.7-1.1,1.6-1.6,2.6-1.6.2,0,.5,0,.8.1v1.8h0Z"/>
    <path class="cls-3" d="m530.4105,107.3524c-1.5,0-2.6-.5-3.5-1.4s-1.3-2.2-1.3-3.8.4-2.9,1.3-3.8c.9-.9,2-1.4,3.4-1.4s2.6.5,3.4,1.4c.8.9,1.3,2.2,1.3,3.9v.4h-7.5c.1,1.2.4,2,1,2.6s1.3.8,2.1.8c.6,0,1.2-.2,1.7-.5s.8-.8.8-1.3h1.8c-.1,1-.6,1.8-1.4,2.4s-1.9.7-3.1.7Zm2.6-6.2c-.1-1-.5-1.7-1-2.2s-1.1-.7-1.8-.7-1.3.2-1.8.7-.8,1.2-1,2.2h5.6Z"/>
    <path class="cls-3" d="m538.5106,95.3524c0,.8-.2,1.5-.5,2s-.8.7-1.4.7v-.9c.6,0,.9-.6.9-1.8h-.9v-1.9h1.9v1.9Zm2.9,0c0,.8-.2,1.5-.5,2s-.8.7-1.4.7v-.9c.6,0,.9-.6.9-1.8h-.9v-1.9h1.9v1.9Z"/>
    <g>
      <path class="cls-3" d="m426.3105,36.3524c-.1-.1-.1-.2-.2-.3,0,0,0-.1-.1-.1-.1-.1,0,0,0,0-.1-.2-.2-.5-.3-.7-.2-.5-.4-1-.7-1.5-.3-.5-.7-.9-1.1-1.3s-.9-.7-1.5-1c-.3-.1-.7.1-.8.5-.1.4.1.7.5.8.1,0,.4.2.6.3-.1-.1,0,0,0,0l.1.1.3.3c.2.2.3.4.5.6.1.2.2.3.4.5.1.1.1.2.2.3,0,0,.1.2,0,.1q0,.1.1.2c.1.2.2.4.2.7.2.4.3.9.6,1.2.2.3.6.4.9.2.3-.2.5-.6.3-.9h0Z"/>
      <path class="cls-3" d="m420.4105,35.4524c.2-1.8,1.7-2.9,3.5-3,1.9-.1,3.9.7,5,2.2.5.7,1.6,0,1.1-.7-1.1-1.5-2.9-2.5-4.7-2.8-1.7-.2-3.7.1-4.9,1.4-.7.8-1.1,1.8-1.2,2.8-.2,1,1.1,1,1.2.1h0Z"/>
      <path class="cls-3" d="m422.0105,35.8524c-.4-.2-.9-.4-1.3-.6q.1,0,.2.1c-.3-.1-.5-.2-.7-.4-.3-.2-.7-.1-.9.2-.2.3-.1.7.2.9.4.2.8.4,1.2.6q-.1,0-.2-.1c.3.1.6.3.9.4.2.1.3.1.5.1s.3-.2.4-.3c.1-.3,0-.8-.3-.9h0Z"/>
      <path class="cls-3" d="m429.2105,32.6524c-.1.5-.3,1.1-.4,1.6,0,.1-.1.4-.1.5s0,0,0,0c0,.1-.1.2-.1.3-.2.5-.4,1-.6,1.4.2-.1.4-.2.6-.3h-1.7c-.9,0-1.7-.1-2.6-.2-.4,0-.6.3-.6.6,0,.4.3.6.6.6.9.1,1.7.2,2.6.2h1.7c.2,0,.5-.1.6-.3.2-.5.4-1,.6-1.5.4-.8.5-1.8.8-2.7,0-.7-1.2-1-1.4-.2h0Z"/>
    </g>
    <g>
      <path class="cls-3" d="m421.7105,40.1524s-.1.1,0,0c0,.1-.1.1-.1.1l-.2.2-.5.5c-.4.3-.7.6-1,1s-.6.9-.9,1.5-.5,1.2-.4,1.8c0,.8,1.3.8,1.3,0,0-.5.1-.9.4-1.3.1-.3.3-.5.4-.8.1-.1.1-.2.2-.3,0-.1.1-.1.2-.2.6-.7,1.4-1.1,1.9-1.9.2-.3.1-.7-.2-.9-.5-.1-.9,0-1.1.3h0Z"/>
      <path class="cls-3" d="m423.1105,45.8524c-.8.2-1.7.2-2.5-.2-.8-.4-1.3-1.1-1.7-1.9-.8-1.7-.7-3.9.3-5.5.4-.7-.7-1.4-1.1-.7-1.8,2.9-1.2,7.9,2.3,9.4,1,.4,2,.4,3,.1.9001-.2.6-1.5-.3-1.2h0Z"/>
      <path class="cls-3" d="m422.8105,44.3524c0,.4-.1.8-.1,1.1v.8-.2.2c0,.2,0,.3.1.5.1.1.2.3.4.3s.4,0,.5-.1.3-.2.3-.4c.1-.4.1-.7.1-1.1s0-.8.1-1.2c0-.2-.1-.4-.2-.5s-.3-.2-.5-.2c-.4.1-.7.4001-.7.8h0Z"/>
      <path class="cls-3" d="m417.2105,38.6524c.6-.1,1.2-.1,1.8-.2.1,0,.3,0,.4-.1.1,0,.2,0,.1,0h1.9c-.2-.2-.4-.3-.6-.5.2.5.4,1,.6,1.6.3.8.5,1.7.8,2.5s1.5.5,1.3-.3c-.3-.8-.5-1.7-.8-2.5-.2-.5-.4-1-.6-1.6-.1-.3-.3-.5-.6-.5h-1.6c-.3,0-.6,0-.9.1-.6.1-1.1.1-1.7.2-.3,0-.7.3-.7.7-.0999.3.2001.7.6001.6h0Z"/>
    </g>
    <g>
      <path class="cls-3" d="m427.2105,42.9524c-.1,0,0,0,0,0h.5c.3,0,.5,0,.8.1.6.1,1.1.1,1.7,0,1-.2,2.1-.5,2.9-1.2.6-.6-.3-1.5-.9-.9-.3.3-.7.5-1,.6-.4.1-.9.3-1.4.3-1,.1-1.9-.2-2.9-.1-.3.1-.5.5-.5.8.1.3.4.4.8.4h0Z"/>
      <path class="cls-3" d="m430.3105,37.9524c1.6,1,2,2.8,1.3,4.5-.7,1.8-2.4,3.1-4.3,3.5-.8.2-.5,1.4.3,1.3,1.9-.4,3.5-1.6,4.5-3.1.9-1.4,1.4-3.3.8-4.9-.4-1-1.1-1.8-2-2.3-.6-.5-1.3.6-.6,1h0Z"/>
      <path class="cls-3" d="m429.5105,39.2524c.3-.2.5-.4.8-.7.2-.1.3-.3.5-.4l-.1.1c.1-.1.2-.2.4-.3.1-.1.3-.2.3-.4s0-.4-.1-.5-.2-.3-.4-.3-.4,0-.5.1c-.6.4-1.2,1-1.8,1.4-.1.1-.2.3-.2.5s.1.3.2.5c.1.1.3.2.5.2h.2c0-.1.1-.1.2-.2h0Z"/>
      <path class="cls-3" d="m429.2105,47.1524c-.4-.4-.9-.7-1.3-1.1-.2-.2-.5-.4-.7-.6-.3-.4-.7-.8-1-1.2,0,.3.1.5.1.8.2-.5.5-1,.7-1.5.4-.8.9-1.5,1.3-2.2s-.7-1.4-1.1-.7c-.4.7-.9,1.5-1.3,2.2-.3.5-.5,1-.7,1.5-.1.3-.1.6.1.8.3.4.7.8,1,1.2.2.2.4.4.7.6.4.4.9.7,1.3,1.1.3.2.7.3.9,0,.2-.2.3-.5999,0-.9h0Z"/>
    </g>
    <path class="cls-3" d="m417.4105,39.8524c0,.7.1,1.5.1,2.2,0,.4.1.8.1,1.2,0,.2,0,.5.1.7s.4.4.7.3c.2-.1.3-.3.3-.5v-.3c-.1.1-.2.3-.2.4h-.4s-.1,0,0,0-.1-.1,0,0l.2.2.3.3c.2.2.6.3.8,0,.2-.2.2-.4.1-.7-.2-.7-.5-1.4-.7-2.1s-.3-1.5-.3-2.2c0-.6-1-.6-1,0s0,1.3.2,1.9c.1.3.2.7.3,1,.1.4.2.7.4,1.1,0,.1.1.3.1.4v.3-.2c0-.1.1-.1.1-.2h0c.1,0,.1-.1.2-.1h.3l.2.1h0l-.1-.1-.3-.3c-.3-.3-.6-.4-1-.3-.2.1-.3.3-.2.4v.3h0l.1-.2c.1-.1.3-.2.4-.2h0c.1,0,.2.1.4.1,0,0,.2.3.1.2q0-.1,0,.1v-.5c0-.4-.1-.8-.1-1.2-.1-.7-.1-1.5-.1-2.2-.1-.5-1.1-.5-1.1.1h0Z"/>
    <path class="cls-3" d="m428.6105,32.7524c-.7-.3-1.5-.5-2.2-.7-.4-.1-.8-.2-1.2-.3-.3-.1-.7-.2-.9,0-.1.1-.2.3-.1.5.1.3.4.4.7.5-.1-.2-.2-.3-.4-.5,0-.1,0-.2.1-.2,0-.1.1,0,0,0,0,0-.1,0-.1.1-.1,0,.1,0,0,0-.2.1-.4.1-.5.2-.3.1-.4.5-.3.7s.3.3.5.3c.8.1,1.5.1,2.3.1s1.5.3,2.2.6c.3.1.5-.1.6-.3.1-.3-.1-.5-.3-.6-.6-.2-1.2-.4-1.8-.5-.4-.1-.7-.1-1.1-.1h-1.6c-.1,0-.2,0-.1,0h-.1c-.1,0,0,0,.2.2,0,.1,0,.2.1.3h0c0,.1,0,.2-.1.3,0,0-.2.2-.1.1,0,0,.1,0,0,0s.1,0,.1,0c.1-.1.3-.1.4-.2.3-.1.6-.4.6-.7,0-.2-.2-.4-.4-.5-.1,0-.2-.1-.2-.1-.1,0,0,0,0,0-.1,0,0,0,.1.1,0,.1.1.1.1.2h0c0,.2-.1.3-.1.5h0c-.1,0-.1.1-.2.1,0,0-.3,0-.2,0h.1c.1,0,.3.1.4.1.4.1.8.2,1.2.3.7.2,1.4.4,2.1.7.5,0,.8-1,.2-1.2h0Z"/>
    <path class="cls-3" d="m429.7105,46.3524l1.6-1.6c.3-.3.6-.6.8-.9.2-.2.4-.3.5-.5.3-.5-.3-.9-.7-.7l-.3.3c.2,0,.4-.1.6-.1-.1,0,.1.1.1,0l.1.1h0c0-.1,0,.1,0,.1v-.3c0-.2,0-.3.1-.5,0-.3-.2-.6-.6-.6-.2,0-.4.2-.5.4-.4.6-.7,1.3-1.1,1.9s-.9,1.2-1.5,1.7c-.2.2-.2.5,0,.7s.5.2.7,0c.4-.4.9-.8,1.2-1.3.2-.3.4-.6.6-1,.2-.3.4-.7.6-1,.1-.1.2-.3.2-.4s.1-.1.1-.2-.1.1,0,0-.1.1-.2.1h-.4l-.2-.2v-.2q0-.1,0,0v.6c0,.3,0,.7.3.9.2.1.4.1.6-.1l.2-.2h.1s-.1.1-.2.1h-.3l-.3-.3h0v-.3c0-.1.1-.1.1-.2l-.1.1-.2.2-.6.6c-.5.5-.9,1-1.4,1.5l-.5.5c-.6001.5.0999,1.2.5999.8h0Z"/>
  </g>
</svg>